<svg width="25" height="25" viewBox="0 0 25 25" fill="none" xmlns="http://www.w3.org/2000/svg">
<g clip-path="url(#clip0_178_216)">
<path d="M9.0542 19.5746C4.0542 21.0746 4.0542 17.0746 2.0542 16.5746M16.0542 22.5746V18.7046C16.0917 18.2278 16.0273 17.7484 15.8652 17.2984C15.7031 16.8484 15.4471 16.4381 15.1142 16.0946C18.2542 15.7446 21.5542 14.5546 21.5542 9.09465C21.5539 7.69847 21.0169 6.35584 20.0542 5.34464C20.5101 4.12315 20.4778 2.77299 19.9642 1.57464C19.9642 1.57464 18.7842 1.22464 16.0542 3.05464C13.7622 2.43347 11.3462 2.43347 9.0542 3.05464C6.3242 1.22464 5.1442 1.57464 5.1442 1.57464C4.63058 2.77299 4.59834 4.12315 5.0542 5.34464C4.08433 6.36334 3.54672 7.71811 3.5542 9.12464C3.5542 14.5446 6.8542 15.7346 9.9942 16.1246C9.6652 16.4646 9.41146 16.8701 9.24951 17.3146C9.08755 17.7591 9.02101 18.2327 9.0542 18.7046V22.5746" stroke="#e5a99a" stroke-width="2" stroke-linecap="round" stroke-linejoin="round"/>
</g>
<defs>
<clipPath id="clip0_178_216">
<rect width="24" height="24" fill="white" transform="translate(0.0541992 0.574585)"/>
</clipPath>
</defs>
</svg>
