<svg width="25" height="25" viewBox="0 0 25 25" fill="none" xmlns="http://www.w3.org/2000/svg">
<path d="M16.1095 8.85583C17.7008 8.85583 19.2269 9.48798 20.3521 10.6132C21.4774 11.7384 22.1095 13.2645 22.1095 14.8558V21.8558H18.1095V14.8558C18.1095 14.3254 17.8988 13.8167 17.5237 13.4416C17.1486 13.0665 16.6399 12.8558 16.1095 12.8558C15.5791 12.8558 15.0704 13.0665 14.6953 13.4416C14.3202 13.8167 14.1095 14.3254 14.1095 14.8558V21.8558H10.1095V14.8558C10.1095 13.2645 10.7416 11.7384 11.8669 10.6132C12.9921 9.48798 14.5182 8.85583 16.1095 8.85583Z" stroke="#e5a99a" stroke-width="2" stroke-linecap="round" stroke-linejoin="round"/>
<path d="M6.1095 9.85583H2.1095V21.8558H6.1095V9.85583Z" stroke="#e5a99a" stroke-width="2" stroke-linecap="round" stroke-linejoin="round"/>
<path d="M4.1095 6.85583C5.21407 6.85583 6.1095 5.9604 6.1095 4.85583C6.1095 3.75127 5.21407 2.85583 4.1095 2.85583C3.00493 2.85583 2.1095 3.75127 2.1095 4.85583C2.1095 5.9604 3.00493 6.85583 4.1095 6.85583Z" stroke="#e5a99a" stroke-width="2" stroke-linecap="round" stroke-linejoin="round"/>
</svg>
