<svg width="23" height="23" viewBox="0 0 23 23" fill="none" xmlns="http://www.w3.org/2000/svg">
    <path
        d="M21.0671 16.4842V19.4842C21.0682 19.7627 21.0112 20.0384 20.8996 20.2935C20.788 20.5487 20.6244 20.7778 20.4191 20.966C20.2139 21.1543 19.9716 21.2977 19.7078 21.3869C19.444 21.4761 19.1644 21.5093 18.8871 21.4842C15.8099 21.1498 12.8541 20.0983 10.2571 18.4142C7.8409 16.8788 5.79241 14.8304 4.25707 12.4142C2.56705 9.80539 1.51531 6.83518 1.18707 3.74418C1.16208 3.46765 1.19495 3.18894 1.28357 2.92581C1.3722 2.66267 1.51464 2.42087 1.70184 2.2158C1.88903 2.01074 2.11688 1.84689 2.37086 1.73471C2.62485 1.62252 2.89941 1.56445 3.17707 1.56418H6.17707C6.66238 1.55941 7.13286 1.73126 7.50083 2.04772C7.8688 2.36417 8.10915 2.80363 8.17707 3.28418C8.30369 4.24425 8.53852 5.18691 8.87707 6.09418C9.01162 6.45211 9.04073 6.8411 8.96098 7.21506C8.88122 7.58903 8.69593 7.93229 8.42707 8.20418L7.15707 9.47418C8.58063 11.9777 10.6535 14.0506 13.1571 15.4742L14.4271 14.2042C14.699 13.9353 15.0422 13.75 15.4162 13.6703C15.7902 13.5905 16.1791 13.6196 16.5371 13.7542C17.4443 14.0927 18.387 14.3276 19.3471 14.4542C19.8328 14.5227 20.2765 14.7674 20.5936 15.1417C20.9107 15.516 21.0792 15.9938 21.0671 16.4842Z"
        stroke="#f9a8d4" stroke-width="2" stroke-linecap="round" stroke-linejoin="round" />
</svg>